HIERARCHY
ROOT Hips
{
 OFFSET 0.000000 0.000000 0.000000
 CHANNELS 6 Xposition Yposition Zposition Yrotation Xrotation Zrotation
 JOINT Chest
 {
  OFFSET 0.000000 9.910571 -0.011835
  CHANNELS 3 Yrotation Xrotation Zrotation
  JOINT Chest2
  {
   OFFSET 0.000000 10.789473 0.021497
   CHANNELS 3 Yrotation Xrotation Zrotation
   JOINT Chest3
   {
    OFFSET 0.000000 9.748205 0.000000
    CHANNELS 3 Yrotation Xrotation Zrotation
    JOINT Chest4
    {
     OFFSET 0.000000 9.748205 0.000000
     CHANNELS 3 Yrotation Xrotation Zrotation
     JOINT Neck
     {
      OFFSET 0.000000 13.998479 0.000000
      CHANNELS 3 Yrotation Xrotation Zrotation
      JOINT Head
      {
       OFFSET 0.000000 9.082285 0.051121
       CHANNELS 3 Yrotation Xrotation Zrotation
       End Site
       {
        OFFSET 0.000000 17.246134 0.026702
       }
      }
     }
     JOINT RightCollar
     {
      OFFSET -3.284495 7.824262 0.000000
      CHANNELS 3 Yrotation Xrotation Zrotation
      JOINT RightShoulder
      {
       OFFSET -15.534540 0.000000 0.000000
       CHANNELS 3 Yrotation Xrotation Zrotation
       JOINT RightElbow
       {
        OFFSET 0.000000 -28.251216 0.000000
        CHANNELS 3 Yrotation Xrotation Zrotation
        JOINT RightWrist
        {
         OFFSET 0.000000 -23.418114 0.012537
         CHANNELS 3 Yrotation Xrotation Zrotation
         End Site
         {
          OFFSET 0.000000 -17.723959 0.000000
         }
        }
       }
      }
     }
     JOINT LeftCollar
     {
      OFFSET 3.284495 7.824262 0.000000
      CHANNELS 3 Yrotation Xrotation Zrotation
      JOINT LeftShoulder
      {
       OFFSET 15.534540 0.000000 0.000000
       CHANNELS 3 Yrotation Xrotation Zrotation
       JOINT LeftElbow
       {
        OFFSET 0.000000 -28.251216 0.000000
        CHANNELS 3 Yrotation Xrotation Zrotation
        JOINT LeftWrist
        {
         OFFSET 0.000000 -23.418114 0.012537
         CHANNELS 3 Yrotation Xrotation Zrotation
         End Site
         {
          OFFSET 0.000000 -17.723959 0.000000
         }
        }
       }
      }
     }
    }
   }
  }
 }
 JOINT RightHip
 {
  OFFSET -8.142657 0.057990 0.005917
  CHANNELS 3 Yrotation Xrotation Zrotation
  JOINT RightKnee
  {
   OFFSET 0.000000 -49.716894 0.008478
   CHANNELS 3 Yrotation Xrotation Zrotation
   JOINT RightAnkle
   {
    OFFSET 0.000000 -43.994153 0.004166
    CHANNELS 3 Yrotation Xrotation Zrotation
    JOINT RightToe
    {
     OFFSET 0.000000 -7.619154 17.822051
     CHANNELS 3 Yrotation Xrotation Zrotation
     End Site
     {
      OFFSET 0.000000 -1.595627 7.159905
     }
    }
   }
  }
 }
 JOINT LeftHip
 {
  OFFSET 8.142657 0.057990 0.005917
  CHANNELS 3 Yrotation Xrotation Zrotation
  JOINT LeftKnee
  {
   OFFSET 0.000000 -49.716894 0.008478
   CHANNELS 3 Yrotation Xrotation Zrotation
   JOINT LeftAnkle
   {
    OFFSET 0.000000 -43.994153 0.004166
    CHANNELS 3 Yrotation Xrotation Zrotation
    JOINT LeftToe
    {
     OFFSET 0.000000 -7.619154 17.822051
     CHANNELS 3 Yrotation Xrotation Zrotation
     End Site
     {
      OFFSET 0.000000 -1.595627 7.159905
     }
    }
   }
  }
 }
}
MOTION
Frames: 16
Frame Time: 0.008333
245.303890 56.670287 263.960295 -53.565446 -55.791025 2.534977 -2.082640 21.359163 -1.573676 -0.782726 9.489183 -0.658743 -0.782726 9.489183 -0.658743 -0.575383 7.117752 -0.480669 -0.978503 18.635566 -0.423798 -1.657801 -1.576675 -0.459154 -1.356685 9.398668 12.626573 24.617948 -18.291593 -24.831293 -4.717195 -43.374442 34.883391 2.142227 -9.439843 -9.081882 -1.267700 10.914371 -9.936845 -8.158359 -19.227288 17.696439 19.432872 -45.415088 -34.852736 -0.854627 3.090987 -6.491579 -7.558843 -31.360398 -9.344555 -92.819034 73.686058 -108.268737 -3.021134 -4.749458 6.928243 0.010983 0.244053 0.007070 4.411250 -31.816411 11.987933 77.106387 85.119262 79.556955 -1.015883 1.031924 -1.129469 -0.045423 -0.185434 -0.018905
245.302304 56.669940 263.959680 -53.560993 -55.789854 2.530145 -2.081615 21.359432 -1.571007 -0.783661 9.488713 -0.659640 -0.783661 9.488713 -0.659640 -0.576069 7.117401 -0.481327 -1.245127 18.610204 -0.523658 -2.114706 -1.623368 -0.555297 -1.356942 9.399705 12.626181 24.620078 -18.289076 -24.830652 -4.712742 -43.376570 34.884396 2.144238 -9.444415 -9.091064 -1.265304 10.921968 -9.927330 -8.161083 -19.233298 17.691977 19.382909 -45.416062 -34.878144 -0.825338 3.067926 -6.435888 -7.565078 -31.363411 -9.337659 -92.828032 73.682028 -108.277825 -3.026673 -4.748732 6.921752 0.018357 0.242610 0.010748 4.404646 -31.816491 11.990286 77.068876 85.137011 79.520496 -0.996154 1.028915 -1.134393 -0.042981 -0.183728 -0.018205
245.301852 56.669441 263.959715 -53.549731 -55.789384 2.522785 -2.088217 21.357815 -1.573956 -0.784714 9.488290 -0.659719 -0.784714 9.488290 -0.659719 -0.576856 7.117085 -0.481370 -1.523801 18.588069 -0.625712 -2.593052 -1.663864 -0.651455 -1.360451 9.403041 12.618472 24.625592 -18.295686 -24.827872 -4.701358 -43.372237 34.882177 2.142225 -9.446536 -9.099027 -1.265402 10.929322 -9.927461 -8.164525 -19.233873 17.695444 19.385887 -45.420135 -34.878282 -0.831300 3.062313 -6.433824 -7.568915 -31.361364 -9.335887 -92.825882 73.679952 -108.277950 -3.031033 -4.751667 6.924112 0.016516 0.245733 0.011965 4.395080 -31.818502 11.991848 77.083417 85.136808 79.528291 -0.994532 1.032533 -1.130070 -0.044630 -0.186971 -0.019112
245.301341 56.669977 263.961392 -53.536147 -55.790922 2.519162 -2.097213 21.359010 -1.583263 -0.787046 9.487884 -0.661739 -0.787046 9.487884 -0.661739 -0.578571 7.116786 -0.482845 -1.806504 18.567144 -0.728976 -3.078440 -1.701926 -0.748426 -1.354573 9.412151 12.613445 24.637990 -18.303130 -24.827095 -4.701807 -43.366613 34.870282 2.145064 -9.450538 -9.092739 -1.254274 10.936658 -9.918614 -8.171067 -19.231356 17.693337 19.345360 -45.430140 -34.905246 -0.808981 3.045467 -6.378910 -7.567955 -31.359112 -9.347764 -92.847486 73.685271 -108.300456 -3.029507 -4.757923 6.927328 0.009843 0.247415 0.012046 4.391941 -31.815799 11.985810 77.077829 85.132671 79.522393 -1.009763 1.031984 -1.132802 -0.040382 -0.187223 -0.016636
245.300898 56.670016 263.960861 -53.522478 -55.793126 2.508192 -2.104710 21.353414 -1.585838 -0.789306 9.486935 -0.663918 -0.789306 9.486935 -0.663918 -0.580229 7.116080 -0.484442 -2.094863 18.552824 -0.831297 -3.574516 -1.727462 -0.841856 -1.347549 9.424515 12.606511 24.640679 -18.313625 -24.824370 -4.689089 -43.362903 34.865528 2.134755 -9.452302 -9.101687 -1.245219 10.954465 -9.914252 -8.173970 -19.232795 17.695558 19.343935 -45.434908 -34.907921 -0.809765 3.044837 -6.376543 -7.572391 -31.355054 -9.348423 -92.855252 73.690888 -108.302587 -3.040588 -4.759312 6.921152 0.014005 0.248994 0.014405 4.384052 -31.817468 11.987182 77.079515 85.135401 79.525424 -1.013324 1.039878 -1.135339 -0.040458 -0.193413 -0.015178
245.298946 56.669299 263.959024 -53.523131 -55.793029 2.505056 -2.100982 21.349629 -1.582161 -0.790043 9.485822 -0.666177 -0.790043 9.485822 -0.666177 -0.580747 7.115249 -0.486122 -2.391948 18.541062 -0.933324 -4.086718 -1.747921 -0.931899 -1.343480 9.433730 12.605489 24.627265 -18.317784 -24.828452 -4.677641 -43.364239 34.879432 2.131973 -9.454791 -9.108265 -1.243276 10.970989 -9.910060 -8.170799 -19.231807 17.696790 19.308954 -45.450005 -34.942297 -0.790909 3.040215 -6.332001 -7.573762 -31.353018 -9.336414 -92.852152 73.697117 -108.301457 -3.055256 -4.755096 6.917679 0.019184 0.248705 0.018214 4.381790 -31.818855 11.993314 77.120230 85.144499 79.568354 -1.008433 1.032393 -1.137932 -0.040126 -0.191500 -0.015348
245.298795 56.670071 263.959926 -53.524422 -55.799480 2.508987 -2.102103 21.351332 -1.592834 -0.790193 9.486623 -0.668377 -0.790193 9.486623 -0.668377 -0.580824 7.115852 -0.487765 -2.687469 18.531537 -1.025921 -4.599138 -1.763742 -1.005161 -1.334517 9.435089 12.603593 24.621892 -18.324264 -24.827706 -4.680166 -43.356413 34.888253 2.127082 -9.460112 -9.109929 -1.235538 10.987408 -9.901482 -8.165426 -19.240460 17.695160 19.315344 -45.455547 -34.958489 -0.792960 3.043634 -6.324030 -7.571929 -31.348297 -9.342769 -92.857735 73.701003 -108.308235 -3.052959 -4.752711 6.918480 0.012576 0.245893 0.014891 4.377240 -31.810542 11.994286 77.138897 85.148548 79.579300 -1.003343 1.028293 -1.134639 -0.041326 -0.190677 -0.016858
245.298520 56.670290 263.960849 -53.515654 -55.801284 2.505508 -2.109175 21.353328 -1.604965 -0.791560 9.486702 -0.672812 -0.791560 9.486702 -0.672812 -0.581777 7.115919 -0.491062 -2.985091 18.524663 -1.110780 -5.117940 -1.774058 -1.063595 -1.328199 9.434814 12.604083 24.622976 -18.329714 -24.823464 -4.676750 -43.352750 34.892291 2.122323 -9.458453 -9.115576 -1.224503 11.001889 -9.893132 -8.157080 -19.244763 17.698996 19.283610 -45.467628 -34.999579 -0.767797 3.038604 -6.262923 -7.568220 -31.341399 -9.348216 -92.861910 73.704699 -108.310793 -3.060793 -4.760458 6.925373 0.009300 0.251502 0.012105 4.373137 -31.808607 11.992442 77.112594 85.149458 79.552057 -1.007530 1.032113 -1.133795 -0.036773 -0.192992 -0.017495
245.295938 56.669334 263.957781 -53.492027 -55.802867 2.461048 -2.112337 21.351438 -1.586445 -0.791527 9.486506 -0.674689 -0.791527 9.486506 -0.674689 -0.581723 7.115775 -0.492468 -3.278993 18.523290 -1.185894 -5.633043 -1.773529 -1.105549 -1.321947 9.438989 12.604316 24.617448 -18.335832 -24.821308 -4.677180 -43.349799 34.900345 2.117025 -9.458390 -9.122139 -1.223005 11.020101 -9.885764 -8.145004 -19.253710 17.696142 19.286545 -45.471548 -35.008504 -0.773571 3.039838 -6.261567 -7.594343 -31.337287 -9.319191 -92.856568 73.701882 -108.305778 -3.054684 -4.779424 6.931180 -0.001153 0.271230 0.005998 4.340723 -31.812827 12.028120 77.161070 85.151613 79.595251 -1.002478 1.051102 -1.127453 -0.046943 -0.213110 -0.020472
245.295539 56.668576 263.957427 -53.489886 -55.805420 2.455239 -2.113873 21.352918 -1.589369 -0.790983 9.487318 -0.677110 -0.790983 9.487318 -0.677110 -0.581277 7.116386 -0.494286 -3.572736 18.522802 -1.252346 -6.150674 -1.770609 -1.131737 -1.323081 9.437610 12.597365 24.622611 -18.336809 -24.815490 -4.677864 -43.347152 34.905642 2.107793 -9.466860 -9.130284 -1.220312 11.031996 -9.881382 -8.133713 -19.261122 17.696991 19.248072 -45.481260 -35.047485 -0.745291 3.035936 -6.208542 -7.595852 -31.332826 -9.317006 -92.862117 73.704974 -108.306587 -3.057093 -4.785537 6.925044 0.000521 0.275128 0.007907 4.337724 -31.816330 12.032703 77.224964 85.154804 79.661295 -0.998509 1.056467 -1.128919 -0.049104 -0.219433 -0.019346
245.296569 56.667292 263.959119 -53.475319 -55.811520 2.441893 -2.119669 21.352653 -1.593545 -0.791542 9.487287 -0.678865 -0.791542 9.487287 -0.678865 -0.581668 7.116366 -0.495591 -3.858909 18.527211 -1.306909 -6.658207 -1.757802 -1.138843 -1.318841 9.439472 12.591289 24.620638 -18.340431 -24.806948 -4.671809 -43.341241 34.903019 2.097286 -9.472476 -9.135887 -1.218604 11.047244 -9.882252 -8.127713 -19.270784 17.696610 19.243905 -45.485245 -35.053881 -0.746751 3.042128 -6.196004 -7.602407 -31.324383 -9.321621 -92.856296 73.711721 -108.302643 -3.048777 -4.788634 6.931800 -0.008600 0.277756 0.002892 4.323409 -31.816185 12.036547 77.311271 85.156875 79.745023 -1.000221 1.060316 -1.130217 -0.048373 -0.224976 -0.018584
245.296397 56.665999 263.959821 -53.468145 -55.815733 2.427907 -2.120445 21.354211 -1.594680 -0.790743 9.486647 -0.679348 -0.790743 9.486647 -0.679348 -0.581064 7.115886 -0.495966 -4.142122 18.531770 -1.353286 -7.162958 -1.743893 -1.132000 -1.312183 9.445896 12.587411 24.607103 -18.349608 -24.809102 -4.661599 -43.339590 34.913908 2.086830 -9.475348 -9.141831 -1.214966 11.068228 -9.880913 -8.118190 -19.280879 17.699112 19.200667 -45.496529 -35.090794 -0.720745 3.033475 -6.133640 -7.610058 -31.315635 -9.320988 -92.834842 73.712377 -108.277687 -3.030192 -4.795079 6.932257 -0.016539 0.283423 -0.001908 4.314678 -31.815536 12.049010 77.353919 85.158974 79.787720 -1.001118 1.056698 -1.132451 -0.041869 -0.223850 -0.015933
245.297677 56.664961 263.960736 -53.461289 -55.819803 2.421987 -2.124248 21.353030 -1.602267 -0.790415 9.485910 -0.680518 -0.790415 9.485910 -0.680518 -0.580801 7.115334 -0.496848 -4.415302 18.534875 -1.388572 -7.652918 -1.731857 -1.108114 -1.302898 9.458988 12.586297 24.603606 -18.359500 -24.814282 -4.663886 -43.334349 34.916668 2.080002 -9.478035 -9.140656 -1.211155 11.084589 -9.879557 -8.115015 -19.294009 17.695818 19.189918 -45.491216 -35.091018 -0.722755 3.032633 -6.124830 -7.609920 -31.308864 -9.325307 -92.832005 73.714281 -108.271286 -3.026866 -4.800492 6.932226 -0.018532 0.287552 -0.002841 4.310600 -31.813263 12.048506 77.333220 85.157105 79.768327 -1.001509 1.059175 -1.134657 -0.037230 -0.223880 -0.014738
245.298281 56.664996 263.961680 -53.467749 -55.826873 2.417936 -2.122312 21.355700 -1.607314 -0.788798 9.486438 -0.681092 -0.788798 9.486438 -0.681092 -0.579581 7.115729 -0.497302 -4.684978 18.536427 -1.419059 -8.138031 -1.721961 -1.076582 -1.299968 9.470494 12.585666 24.623634 -18.371245 -24.816658 -4.669010 -43.323359 34.908037 2.083884 -9.484225 -9.135524 -1.195714 11.097959 -9.878532 -8.117906 -19.300777 17.704504 19.140653 -45.491619 -35.116411 -0.694855 3.019357 -6.068393 -7.609665 -31.300210 -9.322670 -92.823180 73.707746 -108.260920 -3.004556 -4.802835 6.936277 -0.027834 0.287185 -0.008752 4.310992 -31.808240 12.057698 77.380702 85.146998 79.821817 -1.014215 1.056949 -1.138594 -0.030024 -0.224190 -0.013821
245.298677 56.664090 263.961566 -53.463840 -55.831990 2.406813 -2.119682 21.354081 -1.605425 -0.788723 9.485154 -0.682239 -0.788723 9.485154 -0.682239 -0.579509 7.114767 -0.498163 -4.940083 18.538980 -1.444183 -8.598104 -1.709806 -1.040096 -1.292156 9.485880 12.588408 24.622057 -18.380620 -24.821728 -4.671340 -43.316173 34.908730 2.085892 -9.490120 -9.128216 -1.187508 11.116573 -9.879311 -8.132662 -19.312780 17.711739 19.138397 -45.482096 -35.115332 -0.696858 3.019043 -6.062716 -7.615183 -31.292365 -9.316000 -92.808579 73.705510 -108.242950 -3.002545 -4.803673 6.934725 -0.022726 0.289030 -0.009445 4.302243 -31.803849 12.064620 77.413237 85.143611 79.856624 -1.012497 1.049567 -1.141322 -0.030617 -0.219888 -0.014122
245.298746 56.664593 263.961194 -53.453730 -55.839318 2.394860 -2.119225 21.358870 -1.603578 -0.789342 9.486399 -0.682617 -0.789342 9.486399 -0.682617 -0.579964 7.115702 -0.498434 -5.190404 18.538443 -1.468669 -9.049667 -1.702956 -1.003908 -1.297272 9.490349 12.582597 24.635822 -18.387375 -24.825989 -4.680727 -43.315236 34.911700 2.084509 -9.487271 -9.127986 -1.188804 11.126928 -9.884791 -8.152345 -19.326771 17.720594 19.104740 -45.477458 -35.131911 -0.668208 3.010016 -6.009745 -7.623577 -31.284944 -9.311997 -92.801278 73.693257 -108.233893 -2.993277 -4.804054 6.929168 -0.014733 0.287365 -0.006328 4.295448 -31.796711 12.068980 77.393358 85.153071 79.838149 -1.002110 1.043517 -1.140826 -0.030969 -0.216133 -0.014352
